<?xml version="1.0" encoding="UTF-8"?><svg id="Ebene_1" xmlns="http://www.w3.org/2000/svg" viewBox="0 0 212.51 193.8"><defs><style>.cls-1{fill:#fff;}</style></defs><path fill="currentColor" class="cls-1" d="M92.3,17.6C57.69-20.23-2.71,7.31.09,58.56c1.79,32.64,20.65,55.84,43.99,76.51,21.31,18.87,47.23,33.81,62.26,58.73,13.15-22.56,35.96-36.59,55.49-53,24.51-20.61,46.39-43.26,50.2-76.8,2.37-20.86-3.92-40.62-21.08-53.3-33.24-24.56-80.12-3.37-84.37,37.11-1.33-.69-.91-3.15-1.22-4.52-2.3-10.12-6.07-18.03-13.07-25.68Z"/><path d="M92.3,17.6c7,7.65,10.77,15.56,13.07,25.68.31,1.38-.11,3.84,1.22,4.52,4.24-40.48,51.12-61.67,84.37-37.11,17.16,12.68,23.45,32.44,21.08,53.3-3.82,33.54-25.69,56.19-50.2,76.8-19.52,16.42-42.33,30.44-55.49,53-15.03-24.93-40.95-39.86-62.26-58.73C20.75,114.4,1.88,91.2.09,58.56-2.71,7.31,57.69-20.23,92.3,17.6Z"/></svg>